<?xml version="1.0" encoding="UTF-8" standalone="no"?>
<svg
   xmlns:dc="http://purl.org/dc/elements/1.1/"
   xmlns:cc="http://creativecommons.org/ns#"
   xmlns:rdf="http://www.w3.org/1999/02/22-rdf-syntax-ns#"
   xmlns:svg="http://www.w3.org/2000/svg"
   xmlns="http://www.w3.org/2000/svg"
   xmlns:sodipodi="http://sodipodi.sourceforge.net/DTD/sodipodi-0.dtd"
   xmlns:inkscape="http://www.inkscape.org/namespaces/inkscape"
   version="1.1"
   x="0px"
   y="0px"
   width="151px"
   height="151px"
   xml:space="preserve"
   id="svg2"
   inkscape:version="0.91 r13725"
   sodipodi:docname="avatar_placeholder.svg">
   <path
     d="M 75.400391 0 C 33.748391 0 0 33.748391 0 75.400391 C 0 99.237832 11.091001 120.49373 28.367188 134.29102 L 28.363281 134.30078 L 28.982422 134.78516 C 28.982422 134.78516 28.984375 134.78711 28.984375 134.78711 L 29.984375 135.57031 L 29.994141 135.54688 C 42.566962 145.06946 58.377015 150.7852 75.398438 150.80078 C 92.420094 150.7852 108.23276 145.07057 120.80664 135.54688 L 120.81641 135.57031 L 121.81641 134.78711 C 121.81641 134.78711 121.81836 134.78516 121.81836 134.78516 L 122.4375 134.29883 L 122.43359 134.29102 C 139.71142 120.49364 150.80078 99.236846 150.80078 75.400391 C 150.80078 33.748391 117.05239 0 75.400391 0 z M 75.400391 2 C 115.94939 2 148.80078 34.853391 148.80078 75.400391 C 148.80078 98.426863 138.16856 118.98178 121.56445 132.42383 C 113.24429 114.76628 100.58477 101.95231 85.873047 97.771484 C 85.823777 97.757444 85.773926 97.746267 85.724609 97.732422 C 85.208475 97.587909 84.690971 97.451238 84.169922 97.328125 C 84.070209 97.304508 83.969034 97.286495 83.869141 97.263672 C 83.410039 97.159027 82.951012 97.056554 82.488281 96.96875 C 82.222619 96.918221 81.954355 96.880844 81.6875 96.835938 C 81.377931 96.783954 81.068908 96.726014 80.757812 96.681641 C 80.432277 96.635123 80.104556 96.602547 79.777344 96.564453 C 79.512103 96.533626 79.248705 96.49596 78.982422 96.470703 C 78.396728 96.415063 77.807524 96.37209 77.216797 96.34375 C 77.214204 96.343626 77.211577 96.343874 77.208984 96.34375 C 76.608554 96.315069 76.003815 96.300812 75.398438 96.300781 C 74.791863 96.300781 74.185781 96.314983 73.583984 96.34375 C 73.538888 96.34591 73.494288 96.351196 73.449219 96.353516 C 72.901965 96.381667 72.357517 96.419119 71.814453 96.470703 C 71.584439 96.492543 71.356191 96.524783 71.126953 96.550781 C 70.762498 96.592134 70.397594 96.63181 70.035156 96.683594 C 69.805662 96.716365 69.578276 96.758004 69.349609 96.794922 C 68.994342 96.852307 68.638373 96.907292 68.285156 96.974609 C 67.990031 97.030832 67.697954 97.09902 67.404297 97.162109 C 67.123834 97.222381 66.841591 97.277262 66.5625 97.34375 C 66.226448 97.423791 65.89261 97.5165 65.558594 97.605469 C 65.324214 97.667921 65.088823 97.724203 64.855469 97.791016 C 64.47838 97.898931 64.10482 98.019478 63.730469 98.138672 C 63.543231 98.198315 63.354507 98.252011 63.167969 98.314453 C 62.814375 98.432766 62.464311 98.563125 62.113281 98.691406 C 61.899043 98.769733 61.683966 98.843772 61.470703 98.925781 C 61.16171 99.044549 60.855737 99.17435 60.548828 99.300781 C 60.298294 99.404031 60.045991 99.503015 59.796875 99.611328 C 59.453629 99.760509 59.113938 99.921381 58.773438 100.08008 C 58.583593 100.16859 58.392099 100.2523 58.203125 100.34375 C 57.816917 100.53057 57.433288 100.72878 57.050781 100.92773 C 56.897158 101.00768 56.742858 101.08414 56.589844 101.16602 C 56.261531 101.34161 55.936798 101.52649 55.611328 101.71094 C 55.387952 101.83758 55.163418 101.96102 54.941406 102.0918 C 54.638784 102.26998 54.339107 102.4568 54.039062 102.64258 C 53.827602 102.77357 53.614455 102.90043 53.404297 103.03516 C 53.019259 103.28189 52.638398 103.53968 52.257812 103.79883 C 52.145606 103.87527 52.031735 103.94788 51.919922 104.02539 C 51.540654 104.28817 51.165691 104.56098 50.791016 104.83594 C 50.644667 104.94338 50.497199 105.04892 50.351562 105.1582 C 49.982069 105.43536 49.616789 105.72284 49.251953 106.01172 C 49.136258 106.10336 49.019516 106.19234 48.904297 106.28516 C 48.519598 106.59492 48.139083 106.91369 47.759766 107.23633 C 47.648503 107.331 47.536574 107.42376 47.425781 107.51953 C 47.060323 107.83531 46.698161 108.15874 46.337891 108.48633 C 46.218838 108.59463 46.098946 108.70097 45.980469 108.81055 C 45.609192 109.15378 45.242504 109.5057 44.876953 109.86133 C 44.781233 109.95449 44.685166 110.04663 44.589844 110.14062 C 44.207161 110.51785 43.827347 110.90234 43.451172 111.29297 C 43.377671 111.36932 43.303718 111.44463 43.230469 111.52148 C 42.854379 111.91596 42.482646 112.31889 42.113281 112.72656 C 42.025407 112.82358 41.937098 112.91982 41.849609 113.01758 C 41.482237 113.42794 41.120244 113.8463 40.759766 114.26953 C 40.691214 114.35004 40.621034 114.4288 40.552734 114.50977 C 40.178814 114.95292 39.809614 115.40454 39.443359 115.86133 C 39.387744 115.93071 39.330827 115.99867 39.275391 116.06836 C 38.874162 116.57263 38.477666 117.08513 38.085938 117.60547 C 38.082566 117.60995 38.079543 117.61466 38.076172 117.61914 C 37.66777 118.16188 37.265013 118.71364 36.867188 119.27344 C 36.85964 119.28406 36.851293 119.29406 36.84375 119.30469 C 35.639606 121.00094 34.485294 122.77409 33.382812 124.61914 C 33.37743 124.62815 33.372568 124.63747 33.367188 124.64648 C 31.899275 127.10518 30.525048 129.68972 29.251953 132.38867 C 29.246339 132.40057 29.239986 132.41192 29.234375 132.42383 C 12.630375 118.98083 2 98.427391 2 75.400391 C 2 34.853391 34.853391 2 75.400391 2 z M 75.400391 39.400391 C 62.034391 39.400391 51.199219 50.234609 51.199219 63.599609 C 51.199219 76.964609 62.034391 87.800781 75.400391 87.800781 C 88.765391 87.800781 99.599609 76.964609 99.599609 63.599609 C 99.599609 50.234609 88.765391 39.400391 75.400391 39.400391 z M 75.400391 41.400391 C 87.661391 41.400391 97.599609 51.338609 97.599609 63.599609 C 97.599609 75.860609 87.662391 85.800781 75.400391 85.800781 C 63.139391 85.800781 53.199219 75.860609 53.199219 63.599609 C 53.199219 51.338609 63.139391 41.400391 75.400391 41.400391 z M 75.400391 98.300781 C 76.541605 98.300781 77.674761 98.353333 78.800781 98.460938 C 79.351909 98.513676 79.900331 98.580175 80.447266 98.658203 C 80.451177 98.65876 80.455073 98.659598 80.458984 98.660156 C 80.750986 98.701913 81.04128 98.755798 81.332031 98.804688 C 81.605417 98.850554 81.880062 98.891248 82.152344 98.943359 C 82.395669 98.99004 82.636514 99.047962 82.878906 99.099609 C 83.182732 99.164185 83.486704 99.224573 83.789062 99.296875 C 84.132102 99.379121 84.473412 99.472316 84.814453 99.564453 C 85.013449 99.618065 85.213797 99.665713 85.412109 99.722656 C 99.442679 103.76304 111.70935 116.15064 119.94531 133.69336 C 107.58131 143.21036 92.235437 148.81483 75.398438 148.79883 C 58.560437 148.81483 43.214609 143.20941 30.849609 133.69141 C 33.035683 128.99211 35.519294 124.66188 38.255859 120.76367 C 38.312603 120.68286 38.370775 120.60387 38.427734 120.52344 C 38.766846 120.04442 39.108405 119.57118 39.455078 119.10547 C 39.508839 119.03327 39.563247 118.96251 39.617188 118.89062 C 41.177513 116.81083 42.813369 114.86509 44.515625 113.06641 C 44.61251 112.96407 44.711276 112.86506 44.808594 112.76367 C 45.157767 112.39976 45.508624 112.03912 45.863281 111.6875 C 45.951326 111.60024 46.040528 111.51618 46.128906 111.42969 C 46.493884 111.07236 46.859906 110.71917 47.230469 110.375 C 47.32987 110.28271 47.431453 110.19485 47.53125 110.10352 C 47.884333 109.78026 48.237753 109.45962 48.595703 109.14844 C 48.756753 109.00848 48.920014 108.87382 49.082031 108.73633 C 49.381002 108.48252 49.680212 108.22776 49.982422 107.98242 C 50.172651 107.82805 50.365152 107.68028 50.556641 107.5293 C 50.857196 107.29223 51.157333 107.05482 51.460938 106.82617 C 51.601517 106.72034 51.743544 106.61964 51.884766 106.51562 C 52.229504 106.26161 52.575329 106.0087 52.923828 105.76562 C 53.098444 105.64389 53.275631 105.52913 53.451172 105.41016 C 53.759375 105.20118 54.067903 104.99139 54.378906 104.79102 C 54.603511 104.64638 54.830606 104.50925 55.056641 104.36914 C 55.337153 104.19518 55.615766 104.01849 55.898438 103.85156 C 56.121732 103.71975 56.347652 103.59614 56.572266 103.46875 C 56.855487 103.30806 57.138551 103.14384 57.423828 102.99023 C 57.660106 102.86307 57.899061 102.74531 58.136719 102.62305 C 58.417704 102.47843 58.697596 102.33106 58.980469 102.19336 C 59.239111 102.0675 59.499582 101.95207 59.759766 101.83203 C 60.016072 101.71373 60.271527 101.59112 60.529297 101.47852 C 60.810781 101.35562 61.095719 101.24301 61.378906 101.12695 C 61.631556 101.02336 61.882745 100.91451 62.136719 100.81641 C 62.436114 100.70081 62.737875 100.59619 63.039062 100.48828 C 63.265205 100.40723 63.489667 100.32083 63.716797 100.24414 C 64.785028 99.883605 65.864417 99.570793 66.953125 99.308594 C 66.953125 99.308594 66.955078 99.308594 66.955078 99.308594 C 67.506391 99.175848 68.059095 99.05619 68.615234 98.949219 C 68.617108 98.948858 68.61922 98.949579 68.621094 98.949219 C 69.021107 98.872344 69.42379 98.807515 69.826172 98.744141 C 69.991211 98.718139 70.154887 98.685822 70.320312 98.662109 C 70.872589 98.582961 71.426021 98.516308 71.982422 98.462891 C 71.985643 98.462581 71.988966 98.463199 71.992188 98.462891 C 73.120167 98.354909 74.257161 98.300781 75.400391 98.300781 z "
     id="polygon6"
     style="fill:#abcbde;fill-opacity:1;stroke:none" /></svg>